<svg width="1352" height="750" viewBox="0 0 1352 750" fill="none" xmlns="http://www.w3.org/2000/svg">
<rect x="61" y="63" width="599.999" height="300" fill="#001E59"/>
<line x1="61.4983" y1="363" x2="61.4983" y2="63" stroke="#F5F5F5"/>
<line x1="360.999" y1="363" x2="360.999" y2="63" stroke="#F5F5F5"/>
<line x1="660.499" y1="363" x2="660.499" y2="63" stroke="#F5F5F5"/>
<line x1="617.571" y1="363" x2="617.571" y2="63" stroke="#F5F5F5"/>
<line x1="574.642" y1="363" x2="574.642" y2="63" stroke="#F5F5F5"/>
<line x1="531.714" y1="363" x2="531.714" y2="63" stroke="#F5F5F5"/>
<line x1="489.784" y1="363" x2="489.784" y2="63" stroke="#F5F5F5"/>
<line x1="446.856" y1="363" x2="446.856" y2="63" stroke="#F5F5F5"/>
<line x1="403.927" y1="363" x2="403.927" y2="63" stroke="#F5F5F5"/>
<line x1="318.07" y1="363" x2="318.07" y2="63" stroke="#F5F5F5"/>
<line x1="275.142" y1="363" x2="275.142" y2="63" stroke="#F5F5F5"/>
<line x1="232.214" y1="363" x2="232.214" y2="63" stroke="#F5F5F5"/>
<line x1="190.284" y1="363" x2="190.284" y2="63" stroke="#F5F5F5"/>
<line x1="147.355" y1="363" x2="147.355" y2="63" stroke="#F5F5F5"/>
<line x1="104.427" y1="363" x2="104.427" y2="63" stroke="#F5F5F5"/>
<line x1="61.9983" y1="105.5" x2="660.999" y2="105.5" stroke="#F5F5F5"/>
<line x1="61.9983" y1="277.5" x2="658.004" y2="277.5" stroke="#F5F5F5"/>
<line x1="61.9983" y1="320.5" x2="661" y2="320.5" stroke="#F5F5F5"/>
<line x1="61.9983" y1="362.5" x2="660.999" y2="362.5" stroke="#F5F5F5"/>
<line x1="65.9917" y1="62.5" x2="660.999" y2="62.5" stroke="#F5F5F5"/>
<line x1="61.9983" y1="234.5" x2="658.004" y2="234.5" stroke="#F5F5F5"/>
<line x1="61.9983" y1="191.5" x2="660.999" y2="191.5" stroke="#F5F5F5"/>
<line x1="61.9983" y1="148.5" x2="658.004" y2="148.5" stroke="#F5F5F5"/>
<rect x="61" y="63" width="599.999" height="300" fill="#001E59"/>
<line x1="61.4983" y1="363" x2="61.4983" y2="63" stroke="#F5F5F5"/>
<line x1="360.999" y1="363" x2="360.999" y2="63" stroke="#F5F5F5"/>
<line x1="660.499" y1="363" x2="660.499" y2="63" stroke="#F5F5F5"/>
<line x1="617.571" y1="363" x2="617.571" y2="63" stroke="#F5F5F5"/>
<line x1="574.642" y1="363" x2="574.642" y2="63" stroke="#F5F5F5"/>
<line x1="531.714" y1="363" x2="531.714" y2="63" stroke="#F5F5F5"/>
<line x1="489.784" y1="363" x2="489.784" y2="63" stroke="#F5F5F5"/>
<line x1="446.856" y1="363" x2="446.856" y2="63" stroke="#F5F5F5"/>
<line x1="403.927" y1="363" x2="403.927" y2="63" stroke="#F5F5F5"/>
<line x1="318.07" y1="363" x2="318.07" y2="63" stroke="#F5F5F5"/>
<line x1="275.142" y1="363" x2="275.142" y2="63" stroke="#F5F5F5"/>
<line x1="232.214" y1="363" x2="232.214" y2="63" stroke="#F5F5F5"/>
<line x1="190.284" y1="363" x2="190.284" y2="63" stroke="#F5F5F5"/>
<line x1="147.355" y1="363" x2="147.355" y2="63" stroke="#F5F5F5"/>
<line x1="104.427" y1="363" x2="104.427" y2="63" stroke="#F5F5F5"/>
<line x1="61.9983" y1="105.5" x2="660.999" y2="105.5" stroke="#F5F5F5"/>
<line x1="61.9983" y1="277.5" x2="658.004" y2="277.5" stroke="#F5F5F5"/>
<line x1="61.9983" y1="320.5" x2="661" y2="320.5" stroke="#F5F5F5"/>
<line x1="61.9983" y1="362.5" x2="660.999" y2="362.5" stroke="#F5F5F5"/>
<line x1="65.9917" y1="62.5" x2="660.999" y2="62.5" stroke="#F5F5F5"/>
<line x1="61.9983" y1="234.5" x2="658.004" y2="234.5" stroke="#F5F5F5"/>
<line x1="61.9983" y1="191.5" x2="660.999" y2="191.5" stroke="#F5F5F5"/>
<line x1="61.9983" y1="148.5" x2="658.004" y2="148.5" stroke="#F5F5F5"/>
<rect x="61" y="413" width="599.999" height="300" fill="#001E59"/>
<line x1="61.4983" y1="713" x2="61.4983" y2="413" stroke="#F5F5F5"/>
<line x1="360.999" y1="713" x2="360.999" y2="413" stroke="#F5F5F5"/>
<line x1="660.499" y1="713" x2="660.499" y2="413" stroke="#F5F5F5"/>
<line x1="617.571" y1="713" x2="617.571" y2="413" stroke="#F5F5F5"/>
<line x1="574.642" y1="713" x2="574.642" y2="413" stroke="#F5F5F5"/>
<line x1="531.714" y1="713" x2="531.714" y2="413" stroke="#F5F5F5"/>
<line x1="489.784" y1="713" x2="489.784" y2="413" stroke="#F5F5F5"/>
<line x1="446.856" y1="713" x2="446.856" y2="413" stroke="#F5F5F5"/>
<line x1="403.927" y1="713" x2="403.927" y2="413" stroke="#F5F5F5"/>
<line x1="318.07" y1="713" x2="318.07" y2="413" stroke="#F5F5F5"/>
<line x1="275.142" y1="713" x2="275.142" y2="413" stroke="#F5F5F5"/>
<line x1="232.214" y1="713" x2="232.214" y2="413" stroke="#F5F5F5"/>
<line x1="190.284" y1="713" x2="190.284" y2="413" stroke="#F5F5F5"/>
<line x1="147.355" y1="713" x2="147.355" y2="413" stroke="#F5F5F5"/>
<line x1="104.427" y1="713" x2="104.427" y2="413" stroke="#F5F5F5"/>
<line x1="61.9983" y1="455.5" x2="660.999" y2="455.5" stroke="#F5F5F5"/>
<line x1="61.9983" y1="627.5" x2="658.004" y2="627.5" stroke="#F5F5F5"/>
<line x1="61.9983" y1="670.5" x2="661" y2="670.5" stroke="#F5F5F5"/>
<line x1="61.9983" y1="712.5" x2="660.999" y2="712.5" stroke="#F5F5F5"/>
<line x1="65.9917" y1="412.5" x2="660.999" y2="412.5" stroke="#F5F5F5"/>
<line x1="61.9983" y1="584.5" x2="658.004" y2="584.5" stroke="#F5F5F5"/>
<line x1="61.9983" y1="541.5" x2="660.999" y2="541.5" stroke="#F5F5F5"/>
<line x1="61.9983" y1="498.5" x2="658.004" y2="498.5" stroke="#F5F5F5"/>
<rect x="711" y="413" width="599.999" height="300" fill="#001E59"/>
<line x1="711.498" y1="713" x2="711.498" y2="413" stroke="#F5F5F5"/>
<line x1="1011" y1="713" x2="1011" y2="413" stroke="#F5F5F5"/>
<line x1="1310.5" y1="713" x2="1310.5" y2="413" stroke="#F5F5F5"/>
<line x1="1267.57" y1="713" x2="1267.57" y2="413" stroke="#F5F5F5"/>
<line x1="1224.64" y1="713" x2="1224.64" y2="413" stroke="#F5F5F5"/>
<line x1="1181.71" y1="713" x2="1181.71" y2="413" stroke="#F5F5F5"/>
<line x1="1139.78" y1="713" x2="1139.78" y2="413" stroke="#F5F5F5"/>
<line x1="1096.86" y1="713" x2="1096.86" y2="413" stroke="#F5F5F5"/>
<line x1="1053.93" y1="713" x2="1053.93" y2="413" stroke="#F5F5F5"/>
<line x1="968.07" y1="713" x2="968.07" y2="413" stroke="#F5F5F5"/>
<line x1="925.142" y1="713" x2="925.142" y2="413" stroke="#F5F5F5"/>
<line x1="882.214" y1="713" x2="882.214" y2="413" stroke="#F5F5F5"/>
<line x1="840.284" y1="713" x2="840.284" y2="413" stroke="#F5F5F5"/>
<line x1="797.355" y1="713" x2="797.355" y2="413" stroke="#F5F5F5"/>
<line x1="754.427" y1="713" x2="754.427" y2="413" stroke="#F5F5F5"/>
<line x1="711.998" y1="455.5" x2="1311" y2="455.5" stroke="#F5F5F5"/>
<line x1="711.998" y1="627.5" x2="1308" y2="627.5" stroke="#F5F5F5"/>
<line x1="711.998" y1="670.5" x2="1311" y2="670.5" stroke="#F5F5F5"/>
<line x1="711.998" y1="712.5" x2="1311" y2="712.5" stroke="#F5F5F5"/>
<line x1="715.992" y1="412.5" x2="1311" y2="412.5" stroke="#F5F5F5"/>
<line x1="711.998" y1="584.5" x2="1308" y2="584.5" stroke="#F5F5F5"/>
<line x1="711.998" y1="541.5" x2="1311" y2="541.5" stroke="#F5F5F5"/>
<line x1="711.998" y1="498.5" x2="1308" y2="498.5" stroke="#F5F5F5"/>
<rect x="711" y="63" width="599.999" height="300" fill="#001E59"/>
<line x1="711.498" y1="363" x2="711.498" y2="63" stroke="#F5F5F5"/>
<line x1="1011" y1="363" x2="1011" y2="63" stroke="#F5F5F5"/>
<line x1="1310.5" y1="363" x2="1310.5" y2="63" stroke="#F5F5F5"/>
<line x1="1267.57" y1="363" x2="1267.57" y2="63" stroke="#F5F5F5"/>
<line x1="1224.64" y1="363" x2="1224.64" y2="63" stroke="#F5F5F5"/>
<line x1="1181.71" y1="363" x2="1181.71" y2="63" stroke="#F5F5F5"/>
<line x1="1139.78" y1="363" x2="1139.78" y2="63" stroke="#F5F5F5"/>
<line x1="1096.86" y1="363" x2="1096.86" y2="63" stroke="#F5F5F5"/>
<line x1="1053.93" y1="363" x2="1053.93" y2="63" stroke="#F5F5F5"/>
<line x1="968.07" y1="363" x2="968.07" y2="63" stroke="#F5F5F5"/>
<line x1="925.142" y1="363" x2="925.142" y2="63" stroke="#F5F5F5"/>
<line x1="882.214" y1="363" x2="882.214" y2="63" stroke="#F5F5F5"/>
<line x1="840.284" y1="363" x2="840.284" y2="63" stroke="#F5F5F5"/>
<line x1="797.355" y1="363" x2="797.355" y2="63" stroke="#F5F5F5"/>
<line x1="754.427" y1="363" x2="754.427" y2="63" stroke="#F5F5F5"/>
<line x1="711.998" y1="105.5" x2="1311" y2="105.5" stroke="#F5F5F5"/>
<line x1="711.998" y1="277.5" x2="1308" y2="277.5" stroke="#F5F5F5"/>
<line x1="711.998" y1="320.5" x2="1311" y2="320.5" stroke="#F5F5F5"/>
<line x1="711.998" y1="362.5" x2="1311" y2="362.5" stroke="#F5F5F5"/>
<line x1="715.992" y1="62.5" x2="1311" y2="62.5" stroke="#F5F5F5"/>
<line x1="711.998" y1="234.5" x2="1308" y2="234.5" stroke="#F5F5F5"/>
<line x1="711.998" y1="191.5" x2="1311" y2="191.5" stroke="#F5F5F5"/>
<line x1="711.998" y1="148.5" x2="1308" y2="148.5" stroke="#F5F5F5"/>
<path d="M662.061 52.0607C662.646 51.4749 662.646 50.5251 662.061 49.9393L652.515 40.3934C651.929 39.8076 650.979 39.8076 650.393 40.3934C649.808 40.9792 649.808 41.9289 650.393 42.5147L658.879 51L650.393 59.4853C649.808 60.0711 649.808 61.0208 650.393 61.6066C650.979 62.1924 651.929 62.1924 652.515 61.6066L662.061 52.0607ZM360.495 52.5L661 52.5V49.5L360.495 49.5V52.5Z" fill="#F2A900"/>
<path d="M64.9393 49.9393C64.3536 50.5251 64.3536 51.4749 64.9393 52.0607L74.4853 61.6066C75.0711 62.1924 76.0208 62.1924 76.6066 61.6066C77.1924 61.0208 77.1924 60.0711 76.6066 59.4853L68.1213 51L76.6066 42.5147C77.1924 41.9289 77.1924 40.9792 76.6066 40.3934C76.0208 39.8076 75.0711 39.8076 74.4853 40.3934L64.9393 49.9393ZM366.505 49.5L66 49.5V52.5L366.505 52.5V49.5Z" fill="#F2A900"/>
<line x1="362" y1="50" x2="362" stroke="#F2A900" stroke-width="3"/>
<path d="M48.9393 361.061C49.5251 361.646 50.4749 361.646 51.0607 361.061L60.6066 351.515C61.1924 350.929 61.1924 349.979 60.6066 349.393C60.0208 348.808 59.0711 348.808 58.4853 349.393L50 357.879L41.5147 349.393C40.9289 348.808 39.9792 348.808 39.3934 349.393C38.8076 349.979 38.8076 350.929 39.3934 351.515L48.9393 361.061ZM48.5 211.01L48.5 360H51.5L51.5 211.01H48.5Z" fill="#F2A900"/>
<path d="M51.0607 63.9393C50.4749 63.3536 49.5251 63.3536 48.9393 63.9393L39.3934 73.4853C38.8076 74.0711 38.8076 75.0208 39.3934 75.6066C39.9792 76.1924 40.9289 76.1924 41.5147 75.6066L50 67.1213L58.4853 75.6066C59.0711 76.1924 60.0208 76.1924 60.6066 75.6066C61.1924 75.0208 61.1924 74.0711 60.6066 73.4853L51.0607 63.9393ZM51.5 213.99L51.5 65H48.5L48.5 213.99H51.5Z" fill="#F2A900"/>
<line x1="50" y1="212.51" x2="-1.32023e-07" y2="212.51" stroke="#F2A900" stroke-width="3"/>
<line x1="686.5" y1="700" x2="686.5" y2="750" stroke="#F2A900" stroke-width="3"/>
<path d="M659.939 698.939C659.354 699.525 659.354 700.475 659.939 701.061L669.485 710.607C670.071 711.192 671.021 711.192 671.607 710.607C672.192 710.021 672.192 709.071 671.607 708.485L663.121 700L671.607 691.515C672.192 690.929 672.192 689.979 671.607 689.393C671.021 688.808 670.071 688.808 669.485 689.393L659.939 698.939ZM691 698.5H661V701.5H691V698.5Z" fill="#F2A900"/>
<path d="M712.061 701.061C712.646 700.475 712.646 699.525 712.061 698.939L702.515 689.393C701.929 688.808 700.979 688.808 700.393 689.393C699.808 689.979 699.808 690.929 700.393 691.515L708.879 700L700.393 708.485C699.808 709.071 699.808 710.021 700.393 710.607C700.979 711.192 701.929 711.192 702.515 710.607L712.061 701.061ZM681 701.5H711V698.5H681V701.5Z" fill="#F2A900"/>
<line x1="1302" y1="387.5" x2="1352" y2="387.5" stroke="#F2A900" stroke-width="3"/>
<path d="M1300.94 414.061C1301.53 414.646 1302.47 414.646 1303.06 414.061L1312.61 404.515C1313.19 403.929 1313.19 402.979 1312.61 402.393C1312.02 401.808 1311.07 401.808 1310.49 402.393L1302 410.879L1293.51 402.393C1292.93 401.808 1291.98 401.808 1291.39 402.393C1290.81 402.979 1290.81 403.929 1291.39 404.515L1300.94 414.061ZM1300.5 383V413H1303.5V383H1300.5Z" fill="#F2A900"/>
<path d="M1303.06 361.939C1302.47 361.354 1301.53 361.354 1300.94 361.939L1291.39 371.485C1290.81 372.071 1290.81 373.021 1291.39 373.607C1291.98 374.192 1292.93 374.192 1293.51 373.607L1302 365.121L1310.49 373.607C1311.07 374.192 1312.02 374.192 1312.61 373.607C1313.19 373.021 1313.19 372.071 1312.61 371.485L1303.06 361.939ZM1303.5 393V363H1300.5V393H1303.5Z" fill="#F2A900"/>
</svg>
