<svg version="1.2" xmlns="http://www.w3.org/2000/svg" viewBox="0 0 1352 750" width="1352" height="750">
  <style>
    .a{fill:#001e59}.b{fill:none;stroke:#f5f5f5}.c{fill:#f2a900}
  </style>
  <path class="a" d="m61 63h600v300h-600z"/>
  <path class="b" d="m61.5 363v-300"/>
  <path class="b" d="m361 363v-300"/>
  <path class="b" d="m660.5 363v-300"/>
  <path class="b" d="m617.6 363v-300"/>
  <path class="b" d="m574.6 363v-300"/>
  <path class="b" d="m531.7 363v-300"/>
  <path class="b" d="m489.8 363v-300"/>
  <path class="b" d="m446.9 363v-300"/>
  <path class="b" d="m403.9 363v-300"/>
  <path class="b" d="m318.1 363v-300"/>
  <path class="b" d="m275.1 363v-300"/>
  <path class="b" d="m232.2 363v-300"/>
  <path class="b" d="m190.3 363v-300"/>
  <path class="b" d="m147.4 363v-300"/>
  <path class="b" d="m104.4 363v-300"/>
  <path class="b" d="m62 105.5h599"/>
  <path class="b" d="m62 277.5h596"/>
  <path class="b" d="m62 320.5h599"/>
  <path class="b" d="m62 362.5h599"/>
  <path class="b" d="m66 62.5h595"/>
  <path class="b" d="m62 234.5h596"/>
  <path class="b" d="m62 191.5h599"/>
  <path class="b" d="m62 148.5h596"/>
  <path class="a" d="m61 63h600v300h-600z"/>
  <path class="b" d="m61.5 363v-300"/>
  <path class="b" d="m361 363v-300"/>
  <path class="b" d="m660.5 363v-300"/>
  <path class="b" d="m617.6 363v-300"/>
  <path class="b" d="m574.6 363v-300"/>
  <path class="b" d="m531.7 363v-300"/>
  <path class="b" d="m489.8 363v-300"/>
  <path class="b" d="m446.9 363v-300"/>
  <path class="b" d="m403.9 363v-300"/>
  <path class="b" d="m318.1 363v-300"/>
  <path class="b" d="m275.1 363v-300"/>
  <path class="b" d="m232.2 363v-300"/>
  <path class="b" d="m190.3 363v-300"/>
  <path class="b" d="m147.4 363v-300"/>
  <path class="b" d="m104.4 363v-300"/>
  <path class="b" d="m62 105.5h599"/>
  <path class="b" d="m62 277.5h596"/>
  <path class="b" d="m62 320.5h599"/>
  <path class="b" d="m62 362.5h599"/>
  <path class="b" d="m66 62.5h595"/>
  <path class="b" d="m62 234.5h596"/>
  <path class="b" d="m62 191.5h599"/>
  <path class="b" d="m62 148.5h596"/>
  <path class="a" d="m61 413h600v300h-600z"/>
  <path class="b" d="m61.5 713v-300"/>
  <path class="b" d="m361 713v-300"/>
  <path class="b" d="m660.5 713v-300"/>
  <path class="b" d="m617.6 713v-300"/>
  <path class="b" d="m574.6 713v-300"/>
  <path class="b" d="m531.7 713v-300"/>
  <path class="b" d="m489.8 713v-300"/>
  <path class="b" d="m446.9 713v-300"/>
  <path class="b" d="m403.9 713v-300"/>
  <path class="b" d="m318.1 713v-300"/>
  <path class="b" d="m275.1 713v-300"/>
  <path class="b" d="m232.2 713v-300"/>
  <path class="b" d="m190.3 713v-300"/>
  <path class="b" d="m147.4 713v-300"/>
  <path class="b" d="m104.4 713v-300"/>
  <path class="b" d="m62 455.5h599"/>
  <path class="b" d="m62 627.5h596"/>
  <path class="b" d="m62 670.5h599"/>
  <path class="b" d="m62 712.5h599"/>
  <path class="b" d="m66 412.5h595"/>
  <path class="b" d="m62 584.5h596"/>
  <path class="b" d="m62 541.5h599"/>
  <path class="b" d="m62 498.5h596"/>
  <path class="a" d="m711 413h600v300h-600z"/>
  <path class="b" d="m711.5 713v-300"/>
  <path class="b" d="m1011 713v-300"/>
  <path class="b" d="m1310.5 713v-300"/>
  <path class="b" d="m1267.6 713v-300"/>
  <path class="b" d="m1224.6 713v-300"/>
  <path class="b" d="m1181.7 713v-300"/>
  <path class="b" d="m1139.8 713v-300"/>
  <path class="b" d="m1096.9 713v-300"/>
  <path class="b" d="m1053.9 713v-300"/>
  <path class="b" d="m968.1 713v-300"/>
  <path class="b" d="m925.1 713v-300"/>
  <path class="b" d="m882.2 713v-300"/>
  <path class="b" d="m840.3 713v-300"/>
  <path class="b" d="m797.4 713v-300"/>
  <path class="b" d="m754.4 713v-300"/>
  <path class="b" d="m712 455.5h599"/>
  <path class="b" d="m712 627.5h596"/>
  <path class="b" d="m712 670.5h599"/>
  <path class="b" d="m712 712.5h599"/>
  <path class="b" d="m716 412.5h595"/>
  <path class="b" d="m712 584.5h596"/>
  <path class="b" d="m712 541.5h599"/>
  <path class="b" d="m712 498.5h596"/>
  <path class="a" d="m711 63h600v300h-600z"/>
  <path class="b" d="m711.5 363v-300"/>
  <path class="b" d="m1011 363v-300"/>
  <path class="b" d="m1310.5 363v-300"/>
  <path class="b" d="m1267.6 363v-300"/>
  <path class="b" d="m1224.6 363v-300"/>
  <path class="b" d="m1181.7 363v-300"/>
  <path class="b" d="m1139.8 363v-300"/>
  <path class="b" d="m1096.9 363v-300"/>
  <path class="b" d="m1053.9 363v-300"/>
  <path class="b" d="m968.1 363v-300"/>
  <path class="b" d="m925.1 363v-300"/>
  <path class="b" d="m882.2 363v-300"/>
  <path class="b" d="m840.3 363v-300"/>
  <path class="b" d="m797.4 363v-300"/>
  <path class="b" d="m754.4 363v-300"/>
  <path class="b" d="m712 105.5h599"/>
  <path class="b" d="m712 277.5h596"/>
  <path class="b" d="m712 320.5h599"/>
  <path class="b" d="m712 362.5h599"/>
  <path class="b" d="m716 62.5h595"/>
  <path class="b" d="m712 234.5h596"/>
  <path class="b" d="m712 191.5h599"/>
  <path class="b" d="m712 148.5h596"/>
  <path class="c panel-width" d="m662.1 52.1c0.5-0.6 0.5-1.6 0-2.2l-9.6-9.5c-0.6-0.6-1.5-0.6-2.1 0-0.6 0.6-0.6 1.5 0 2.1l8.5 8.5-8.5 8.5c-0.6 0.6-0.6 1.5 0 2.1 0.6 0.6 1.5 0.6 2.1 0zm-301.6 0.4h300.6v-3h-300.6z"/>
  <path class="c panel-width" d="m64.9 49.9c-0.5 0.6-0.5 1.6 0 2.2l9.6 9.5c0.6 0.6 1.5 0.6 2.1 0 0.6-0.6 0.6-1.5 0-2.1l-8.5-8.5 8.5-8.5c0.6-0.6 0.6-1.5 0-2.1-0.6-0.6-1.5-0.6-2.1 0zm301.6-0.4h-300.6v3h300.6z"/>
  <path class="c panel-length" d="m48.9 361.1c0.6 0.5 1.6 0.5 2.2 0l9.5-9.6c0.6-0.6 0.6-1.5 0-2.1-0.6-0.6-1.5-0.6-2.1 0l-8.5 8.5-8.5-8.5c-0.6-0.6-1.5-0.6-2.1 0-0.6 0.6-0.6 1.5 0 2.1zm-0.4-150v149h3v-149z"/>
  <path class="c panel-length" d="m51.1 63.9c-0.6-0.5-1.6-0.5-2.2 0l-9.5 9.6c-0.6 0.6-0.6 1.5 0 2.1 0.6 0.6 1.5 0.6 2.1 0l8.5-8.5 8.5 8.5c0.6 0.6 1.5 0.6 2.1 0 0.6-0.6 0.6-1.5 0-2.1zm0.4 150v-149h-3v149z"/>
  <path class="c module-gap" d="m659.9 698.9c-0.5 0.6-0.5 1.6 0 2.2l9.6 9.5c0.6 0.6 1.5 0.6 2.1 0 0.6-0.6 0.6-1.5 0-2.1l-8.5-8.5 8.5-8.5c0.6-0.6 0.6-1.5 0-2.1-0.6-0.6-1.5-0.6-2.1 0zm31-0.4h-30v3h30z"/>
  <path class="c module-gap" d="m712.1 701.1c0.5-0.6 0.5-1.6 0-2.2l-9.6-9.5c-0.6-0.6-1.5-0.6-2.1 0-0.6 0.6-0.6 1.5 0 2.1l8.5 8.5-8.5 8.5c-0.6 0.6-0.6 1.5 0 2.1 0.6 0.6 1.5 0.6 2.1 0zm-31 0.4h30v-3h-30z"/>
  <path class="c row-gap" d="m1300.9 414.1c0.6 0.5 1.6 0.5 2.2 0l9.5-9.6c0.6-0.6 0.6-1.5 0-2.1-0.6-0.6-1.5-0.6-2.1 0l-8.5 8.5-8.5-8.5c-0.6-0.6-1.5-0.6-2.1 0-0.6 0.6-0.6 1.5 0 2.1zm-0.5-31v30h3v-30z"/>
  <path class="c row-gap" d="m1303.1 361.9c-0.6-0.5-1.6-0.5-2.2 0l-9.5 9.6c-0.6 0.6-0.6 1.5 0 2.1 0.6 0.6 1.5 0.6 2.1 0l8.5-8.5 8.5 8.5c0.6 0.6 1.5 0.6 2.1 0 0.6-0.6 0.6-1.5 0-2.1zm0.5 31v-30h-3v30z"/>
</svg>
